<mxfile host="65bd71144e">
    <diagram id="mnIDVwRGAGENz8I64KM0" name="Page-1">
        <mxGraphModel dx="673" dy="1613" grid="1" gridSize="10" guides="1" tooltips="1" connect="1" arrows="1" fold="1" page="1" pageScale="1" pageWidth="850" pageHeight="1100" background="none" math="0" shadow="1">
            <root>
                <mxCell id="0"/>
                <mxCell id="1" parent="0"/>
                <mxCell id="2" value="Nachname" style="ellipse;whiteSpace=wrap;html=1;rounded=1;" parent="1" vertex="1">
                    <mxGeometry x="260" y="390" width="120" height="80" as="geometry"/>
                </mxCell>
                <mxCell id="3" value="" style="rounded=1;whiteSpace=wrap;html=1;" parent="1" vertex="1">
                    <mxGeometry x="500" y="700" width="160" height="90" as="geometry"/>
                </mxCell>
                <mxCell id="4" value="PrimeKunde" style="rounded=1;whiteSpace=wrap;html=1;" parent="1" vertex="1">
                    <mxGeometry x="525" y="717.5" width="110" height="55" as="geometry"/>
                </mxCell>
                <mxCell id="5" value="Lieferant" style="rounded=1;whiteSpace=wrap;html=1;" parent="1" vertex="1">
                    <mxGeometry x="1310" y="290" width="120" height="60" as="geometry"/>
                </mxCell>
                <mxCell id="8" value="Benutzer" style="rounded=1;whiteSpace=wrap;html=1;" parent="1" vertex="1">
                    <mxGeometry x="520" y="420" width="120" height="60" as="geometry"/>
                </mxCell>
                <mxCell id="9" value="Warenkorb" style="rounded=1;whiteSpace=wrap;html=1;" parent="1" vertex="1">
                    <mxGeometry x="720" y="570" width="120" height="60" as="geometry"/>
                </mxCell>
                <mxCell id="12" value="Gericht" style="rounded=1;whiteSpace=wrap;html=1;" parent="1" vertex="1">
                    <mxGeometry x="810" y="-70" width="120" height="60" as="geometry"/>
                </mxCell>
                <mxCell id="13" value="" style="rounded=1;whiteSpace=wrap;html=1;" parent="1" vertex="1">
                    <mxGeometry x="700" y="850" width="160" height="90" as="geometry"/>
                </mxCell>
                <mxCell id="14" value="OderItem" style="rounded=1;whiteSpace=wrap;html=1;" parent="1" vertex="1">
                    <mxGeometry x="725" y="867.5" width="110" height="55" as="geometry"/>
                </mxCell>
                <mxCell id="16" value="App" style="rounded=1;whiteSpace=wrap;html=1;" parent="1" vertex="1">
                    <mxGeometry x="1000" y="425" width="120" height="60" as="geometry"/>
                </mxCell>
                <mxCell id="17" value="Vorname" style="ellipse;whiteSpace=wrap;html=1;rounded=1;" parent="1" vertex="1">
                    <mxGeometry x="260" y="300" width="120" height="80" as="geometry"/>
                </mxCell>
                <mxCell id="18" value="&lt;u&gt;BenutzerID&lt;/u&gt;" style="ellipse;whiteSpace=wrap;html=1;rounded=1;" parent="1" vertex="1">
                    <mxGeometry x="260" y="215" width="120" height="80" as="geometry"/>
                </mxCell>
                <mxCell id="19" value="Email" style="ellipse;whiteSpace=wrap;html=1;rounded=1;" parent="1" vertex="1">
                    <mxGeometry x="260" y="480" width="120" height="80" as="geometry"/>
                </mxCell>
                <mxCell id="20" value="Adresse" style="ellipse;whiteSpace=wrap;html=1;rounded=1;" parent="1" vertex="1">
                    <mxGeometry x="260" y="570" width="120" height="80" as="geometry"/>
                </mxCell>
                <mxCell id="21" value="Passwort" style="ellipse;whiteSpace=wrap;html=1;rounded=1;" parent="1" vertex="1">
                    <mxGeometry x="260" y="660" width="120" height="80" as="geometry"/>
                </mxCell>
                <mxCell id="24" value="" style="endArrow=none;html=1;exitX=1;exitY=0.5;exitDx=0;exitDy=0;entryX=0;entryY=0.5;entryDx=0;entryDy=0;" parent="1" source="18" target="8" edge="1">
                    <mxGeometry width="50" height="50" relative="1" as="geometry">
                        <mxPoint x="650" y="540" as="sourcePoint"/>
                        <mxPoint x="700" y="490" as="targetPoint"/>
                        <Array as="points">
                            <mxPoint x="450" y="255"/>
                            <mxPoint x="450" y="450"/>
                        </Array>
                    </mxGeometry>
                </mxCell>
                <mxCell id="25" value="" style="endArrow=none;html=1;exitX=1;exitY=0.5;exitDx=0;exitDy=0;entryX=0;entryY=0.5;entryDx=0;entryDy=0;" parent="1" source="17" target="8" edge="1">
                    <mxGeometry width="50" height="50" relative="1" as="geometry">
                        <mxPoint x="650" y="540" as="sourcePoint"/>
                        <mxPoint x="500" y="430" as="targetPoint"/>
                        <Array as="points">
                            <mxPoint x="450" y="340"/>
                            <mxPoint x="450" y="450"/>
                        </Array>
                    </mxGeometry>
                </mxCell>
                <mxCell id="27" value="" style="endArrow=none;html=1;exitX=1;exitY=0.5;exitDx=0;exitDy=0;entryX=0;entryY=0.5;entryDx=0;entryDy=0;" parent="1" source="19" target="8" edge="1">
                    <mxGeometry width="50" height="50" relative="1" as="geometry">
                        <mxPoint x="400" y="360" as="sourcePoint"/>
                        <mxPoint x="520" y="450" as="targetPoint"/>
                        <Array as="points">
                            <mxPoint x="450" y="520"/>
                            <mxPoint x="450" y="450"/>
                        </Array>
                    </mxGeometry>
                </mxCell>
                <mxCell id="28" value="" style="endArrow=none;html=1;exitX=1;exitY=0.5;exitDx=0;exitDy=0;" parent="1" source="20" edge="1">
                    <mxGeometry width="50" height="50" relative="1" as="geometry">
                        <mxPoint x="410" y="370" as="sourcePoint"/>
                        <mxPoint x="517" y="450" as="targetPoint"/>
                        <Array as="points">
                            <mxPoint x="450" y="610"/>
                            <mxPoint x="450" y="450"/>
                        </Array>
                    </mxGeometry>
                </mxCell>
                <mxCell id="29" value="" style="endArrow=none;html=1;exitX=1;exitY=0.5;exitDx=0;exitDy=0;entryX=0;entryY=0.5;entryDx=0;entryDy=0;" parent="1" source="21" target="8" edge="1">
                    <mxGeometry width="50" height="50" relative="1" as="geometry">
                        <mxPoint x="420" y="380" as="sourcePoint"/>
                        <mxPoint x="540" y="470" as="targetPoint"/>
                        <Array as="points">
                            <mxPoint x="450" y="700"/>
                            <mxPoint x="450" y="450"/>
                        </Array>
                    </mxGeometry>
                </mxCell>
                <mxCell id="30" value="IS-A" style="rhombus;whiteSpace=wrap;html=1;rounded=1;" parent="1" vertex="1">
                    <mxGeometry x="540" y="550" width="80" height="80" as="geometry"/>
                </mxCell>
                <mxCell id="33" value="" style="endArrow=none;html=1;entryX=0.5;entryY=1;entryDx=0;entryDy=0;" parent="1" source="3" target="30" edge="1">
                    <mxGeometry width="50" height="50" relative="1" as="geometry">
                        <mxPoint x="650" y="780" as="sourcePoint"/>
                        <mxPoint x="700" y="730" as="targetPoint"/>
                    </mxGeometry>
                </mxCell>
                <mxCell id="34" value="" style="endArrow=classic;html=1;exitX=0.5;exitY=0;exitDx=0;exitDy=0;entryX=0.5;entryY=1;entryDx=0;entryDy=0;" parent="1" source="30" target="8" edge="1">
                    <mxGeometry width="50" height="50" relative="1" as="geometry">
                        <mxPoint x="650" y="660" as="sourcePoint"/>
                        <mxPoint x="700" y="610" as="targetPoint"/>
                    </mxGeometry>
                </mxCell>
                <mxCell id="35" value="PromoCode" style="ellipse;whiteSpace=wrap;html=1;rounded=1;" parent="1" vertex="1">
                    <mxGeometry x="510" y="150" width="120" height="80" as="geometry"/>
                </mxCell>
                <mxCell id="36" value="laded ein" style="rhombus;whiteSpace=wrap;html=1;rounded=1;" parent="1" vertex="1">
                    <mxGeometry x="530" y="260" width="80" height="80" as="geometry"/>
                </mxCell>
                <mxCell id="37" value="" style="endArrow=none;html=1;entryX=0.5;entryY=1;entryDx=0;entryDy=0;exitX=0.5;exitY=0;exitDx=0;exitDy=0;" parent="1" source="36" target="35" edge="1">
                    <mxGeometry width="50" height="50" relative="1" as="geometry">
                        <mxPoint x="640" y="510" as="sourcePoint"/>
                        <mxPoint x="690" y="460" as="targetPoint"/>
                    </mxGeometry>
                </mxCell>
                <mxCell id="38" value="" style="endArrow=none;html=1;entryX=0;entryY=0.5;entryDx=0;entryDy=0;exitX=0.5;exitY=0;exitDx=0;exitDy=0;" parent="1" source="8" target="36" edge="1">
                    <mxGeometry width="50" height="50" relative="1" as="geometry">
                        <mxPoint x="650" y="540" as="sourcePoint"/>
                        <mxPoint x="700" y="490" as="targetPoint"/>
                        <Array as="points"/>
                    </mxGeometry>
                </mxCell>
                <mxCell id="40" value="m" style="edgeLabel;html=1;align=center;verticalAlign=middle;resizable=0;points=[];rounded=1;" parent="38" vertex="1" connectable="0">
                    <mxGeometry x="-0.2577" y="3" relative="1" as="geometry">
                        <mxPoint x="-4" y="-12" as="offset"/>
                    </mxGeometry>
                </mxCell>
                <mxCell id="39" value="" style="endArrow=none;html=1;entryX=1;entryY=0.5;entryDx=0;entryDy=0;exitX=0.5;exitY=0;exitDx=0;exitDy=0;" parent="1" source="8" target="36" edge="1">
                    <mxGeometry width="50" height="50" relative="1" as="geometry">
                        <mxPoint x="650" y="540" as="sourcePoint"/>
                        <mxPoint x="700" y="490" as="targetPoint"/>
                        <Array as="points"/>
                    </mxGeometry>
                </mxCell>
                <mxCell id="42" value="1" style="edgeLabel;html=1;align=center;verticalAlign=middle;resizable=0;points=[];rounded=1;" parent="39" vertex="1" connectable="0">
                    <mxGeometry x="-0.099" y="1" relative="1" as="geometry">
                        <mxPoint as="offset"/>
                    </mxGeometry>
                </mxCell>
                <mxCell id="43" value="stellt ein" style="rhombus;whiteSpace=wrap;html=1;rounded=1;" parent="1" vertex="1">
                    <mxGeometry x="1330" y="415" width="80" height="80" as="geometry"/>
                </mxCell>
                <mxCell id="44" value="" style="endArrow=none;html=1;entryX=0;entryY=0.5;entryDx=0;entryDy=0;exitX=1;exitY=0.5;exitDx=0;exitDy=0;" parent="1" source="16" target="43" edge="1">
                    <mxGeometry width="50" height="50" relative="1" as="geometry">
                        <mxPoint x="760" y="500" as="sourcePoint"/>
                        <mxPoint x="810" y="450" as="targetPoint"/>
                    </mxGeometry>
                </mxCell>
                <mxCell id="149" value="1" style="edgeLabel;html=1;align=center;verticalAlign=middle;resizable=0;points=[];" parent="44" vertex="1" connectable="0">
                    <mxGeometry x="0.0952" y="-4" relative="1" as="geometry">
                        <mxPoint as="offset"/>
                    </mxGeometry>
                </mxCell>
                <mxCell id="45" value="" style="endArrow=none;html=1;entryX=0.5;entryY=1;entryDx=0;entryDy=0;exitX=0.5;exitY=0;exitDx=0;exitDy=0;" parent="1" source="43" target="5" edge="1">
                    <mxGeometry width="50" height="50" relative="1" as="geometry">
                        <mxPoint x="1070" y="635" as="sourcePoint"/>
                        <mxPoint x="1120" y="585" as="targetPoint"/>
                    </mxGeometry>
                </mxCell>
                <mxCell id="148" value="m" style="edgeLabel;html=1;align=center;verticalAlign=middle;resizable=0;points=[];" parent="45" vertex="1" connectable="0">
                    <mxGeometry x="-0.0154" y="-1" relative="1" as="geometry">
                        <mxPoint as="offset"/>
                    </mxGeometry>
                </mxCell>
                <mxCell id="46" value="Restaurant" style="rounded=1;whiteSpace=wrap;html=1;" parent="1" vertex="1">
                    <mxGeometry x="910" y="173" width="120" height="60" as="geometry"/>
                </mxCell>
                <mxCell id="47" value="&lt;u&gt;AppID&lt;/u&gt;" style="ellipse;whiteSpace=wrap;html=1;rounded=1;" parent="1" vertex="1">
                    <mxGeometry x="1170" y="163" width="120" height="80" as="geometry"/>
                </mxCell>
                <mxCell id="48" value="Version" style="ellipse;whiteSpace=wrap;html=1;rounded=1;" parent="1" vertex="1">
                    <mxGeometry x="1170" y="335" width="120" height="80" as="geometry"/>
                </mxCell>
                <mxCell id="49" value="Name" style="ellipse;whiteSpace=wrap;html=1;rounded=1;" parent="1" vertex="1">
                    <mxGeometry x="1170" y="250" width="120" height="80" as="geometry"/>
                </mxCell>
                <mxCell id="50" value="" style="endArrow=none;html=1;entryX=0;entryY=0.5;entryDx=0;entryDy=0;exitX=0.5;exitY=0;exitDx=0;exitDy=0;" parent="1" source="16" target="47" edge="1">
                    <mxGeometry width="50" height="50" relative="1" as="geometry">
                        <mxPoint x="1030" y="350" as="sourcePoint"/>
                        <mxPoint x="1080" y="300" as="targetPoint"/>
                        <Array as="points">
                            <mxPoint x="1060" y="203"/>
                        </Array>
                    </mxGeometry>
                </mxCell>
                <mxCell id="51" value="" style="endArrow=none;html=1;entryX=0;entryY=0.5;entryDx=0;entryDy=0;exitX=0.5;exitY=0;exitDx=0;exitDy=0;" parent="1" source="16" target="49" edge="1">
                    <mxGeometry width="50" height="50" relative="1" as="geometry">
                        <mxPoint x="1030" y="350" as="sourcePoint"/>
                        <mxPoint x="1080" y="300" as="targetPoint"/>
                        <Array as="points">
                            <mxPoint x="1060" y="290"/>
                        </Array>
                    </mxGeometry>
                </mxCell>
                <mxCell id="52" value="" style="endArrow=none;html=1;entryX=0;entryY=0.5;entryDx=0;entryDy=0;exitX=0.5;exitY=0;exitDx=0;exitDy=0;" parent="1" source="16" target="48" edge="1">
                    <mxGeometry width="50" height="50" relative="1" as="geometry">
                        <mxPoint x="1030" y="350" as="sourcePoint"/>
                        <mxPoint x="1080" y="300" as="targetPoint"/>
                        <Array as="points">
                            <mxPoint x="1060" y="375"/>
                        </Array>
                    </mxGeometry>
                </mxCell>
                <mxCell id="53" value="hat" style="rhombus;whiteSpace=wrap;html=1;rounded=1;" parent="1" vertex="1">
                    <mxGeometry x="930" y="280" width="80" height="80" as="geometry"/>
                </mxCell>
                <mxCell id="54" value="" style="endArrow=none;html=1;entryX=0.5;entryY=1;entryDx=0;entryDy=0;exitX=0.5;exitY=0;exitDx=0;exitDy=0;" parent="1" source="53" target="46" edge="1">
                    <mxGeometry width="50" height="50" relative="1" as="geometry">
                        <mxPoint x="900" y="310" as="sourcePoint"/>
                        <mxPoint x="950" y="260" as="targetPoint"/>
                    </mxGeometry>
                </mxCell>
                <mxCell id="57" value="m" style="edgeLabel;html=1;align=center;verticalAlign=middle;resizable=0;points=[];rounded=1;" parent="54" vertex="1" connectable="0">
                    <mxGeometry x="0.1915" y="-2" relative="1" as="geometry">
                        <mxPoint as="offset"/>
                    </mxGeometry>
                </mxCell>
                <mxCell id="55" value="" style="endArrow=none;html=1;exitX=0.5;exitY=1;exitDx=0;exitDy=0;entryX=0.5;entryY=0;entryDx=0;entryDy=0;" parent="1" source="53" target="16" edge="1">
                    <mxGeometry width="50" height="50" relative="1" as="geometry">
                        <mxPoint x="900" y="310" as="sourcePoint"/>
                        <mxPoint x="950" y="260" as="targetPoint"/>
                        <Array as="points">
                            <mxPoint x="1060" y="360"/>
                        </Array>
                    </mxGeometry>
                </mxCell>
                <mxCell id="56" value="1" style="edgeLabel;html=1;align=center;verticalAlign=middle;resizable=0;points=[];rounded=1;" parent="55" vertex="1" connectable="0">
                    <mxGeometry x="-0.3063" y="1" relative="1" as="geometry">
                        <mxPoint as="offset"/>
                    </mxGeometry>
                </mxCell>
                <mxCell id="58" value="bestellt" style="rhombus;whiteSpace=wrap;html=1;rounded=1;" parent="1" vertex="1">
                    <mxGeometry x="740" y="410" width="80" height="80" as="geometry"/>
                </mxCell>
                <mxCell id="59" value="" style="endArrow=none;html=1;exitX=1;exitY=0.5;exitDx=0;exitDy=0;entryX=0;entryY=0.5;entryDx=0;entryDy=0;" parent="1" source="8" target="58" edge="1">
                    <mxGeometry width="50" height="50" relative="1" as="geometry">
                        <mxPoint x="820" y="500" as="sourcePoint"/>
                        <mxPoint x="870" y="450" as="targetPoint"/>
                    </mxGeometry>
                </mxCell>
                <mxCell id="61" value="1" style="edgeLabel;html=1;align=center;verticalAlign=middle;resizable=0;points=[];rounded=1;" parent="59" vertex="1" connectable="0">
                    <mxGeometry x="0.2247" y="-3" relative="1" as="geometry">
                        <mxPoint as="offset"/>
                    </mxGeometry>
                </mxCell>
                <mxCell id="60" value="" style="endArrow=none;html=1;entryX=0.5;entryY=0;entryDx=0;entryDy=0;exitX=0;exitY=0.5;exitDx=0;exitDy=0;" parent="1" source="46" target="58" edge="1">
                    <mxGeometry width="50" height="50" relative="1" as="geometry">
                        <mxPoint x="820" y="500" as="sourcePoint"/>
                        <mxPoint x="870" y="450" as="targetPoint"/>
                        <Array as="points">
                            <mxPoint x="780" y="203"/>
                        </Array>
                    </mxGeometry>
                </mxCell>
                <mxCell id="62" value="1" style="edgeLabel;html=1;align=center;verticalAlign=middle;resizable=0;points=[];rounded=1;" parent="60" vertex="1" connectable="0">
                    <mxGeometry x="0.3908" y="2" relative="1" as="geometry">
                        <mxPoint as="offset"/>
                    </mxGeometry>
                </mxCell>
                <mxCell id="63" value="" style="endArrow=none;html=1;entryX=0.5;entryY=1;entryDx=0;entryDy=0;exitX=0.5;exitY=0;exitDx=0;exitDy=0;" parent="1" source="9" target="58" edge="1">
                    <mxGeometry width="50" height="50" relative="1" as="geometry">
                        <mxPoint x="820" y="500" as="sourcePoint"/>
                        <mxPoint x="870" y="450" as="targetPoint"/>
                    </mxGeometry>
                </mxCell>
                <mxCell id="126" value="1" style="edgeLabel;html=1;align=center;verticalAlign=middle;resizable=0;points=[];rounded=1;" parent="63" vertex="1" connectable="0">
                    <mxGeometry x="0.1861" y="2" relative="1" as="geometry">
                        <mxPoint as="offset"/>
                    </mxGeometry>
                </mxCell>
                <mxCell id="64" value="" style="rounded=1;whiteSpace=wrap;html=1;" parent="1" vertex="1">
                    <mxGeometry x="1050" y="692.5" width="200" height="90" as="geometry"/>
                </mxCell>
                <mxCell id="65" value="Mitglied" style="rhombus;whiteSpace=wrap;html=1;rounded=1;" parent="1" vertex="1">
                    <mxGeometry x="1080" y="697.5" width="140" height="80" as="geometry"/>
                </mxCell>
                <mxCell id="66" value="hat" style="rhombus;whiteSpace=wrap;html=1;rounded=1;" parent="1" vertex="1">
                    <mxGeometry x="740" y="692.5" width="80" height="80" as="geometry"/>
                </mxCell>
                <mxCell id="67" value="" style="endArrow=none;html=1;entryX=0.5;entryY=1;entryDx=0;entryDy=0;exitX=0.5;exitY=0;exitDx=0;exitDy=0;" parent="1" source="13" target="66" edge="1">
                    <mxGeometry width="50" height="50" relative="1" as="geometry">
                        <mxPoint x="820" y="640" as="sourcePoint"/>
                        <mxPoint x="870" y="590" as="targetPoint"/>
                    </mxGeometry>
                </mxCell>
                <mxCell id="69" value="m" style="edgeLabel;html=1;align=center;verticalAlign=middle;resizable=0;points=[];rounded=1;" parent="67" vertex="1" connectable="0">
                    <mxGeometry x="-0.0816" y="-4" relative="1" as="geometry">
                        <mxPoint x="-4" as="offset"/>
                    </mxGeometry>
                </mxCell>
                <mxCell id="68" value="" style="endArrow=none;html=1;entryX=0.5;entryY=1;entryDx=0;entryDy=0;exitX=0.5;exitY=0;exitDx=0;exitDy=0;" parent="1" source="66" target="9" edge="1">
                    <mxGeometry width="50" height="50" relative="1" as="geometry">
                        <mxPoint x="820" y="640" as="sourcePoint"/>
                        <mxPoint x="870" y="590" as="targetPoint"/>
                    </mxGeometry>
                </mxCell>
                <mxCell id="70" value="1" style="edgeLabel;html=1;align=center;verticalAlign=middle;resizable=0;points=[];rounded=1;" parent="68" vertex="1" connectable="0">
                    <mxGeometry x="0.0306" y="-1" relative="1" as="geometry">
                        <mxPoint as="offset"/>
                    </mxGeometry>
                </mxCell>
                <mxCell id="71" value="" style="endArrow=none;html=1;entryX=0.5;entryY=1;entryDx=0;entryDy=0;exitX=0.5;exitY=1;exitDx=0;exitDy=0;" parent="1" source="64" target="3" edge="1">
                    <mxGeometry width="50" height="50" relative="1" as="geometry">
                        <mxPoint x="1080" y="800" as="sourcePoint"/>
                        <mxPoint x="600" y="807.5" as="targetPoint"/>
                        <Array as="points">
                            <mxPoint x="1150" y="1160"/>
                            <mxPoint x="580" y="1160"/>
                        </Array>
                    </mxGeometry>
                </mxCell>
                <mxCell id="80" value="m" style="edgeLabel;html=1;align=center;verticalAlign=middle;resizable=0;points=[];rounded=1;" parent="71" vertex="1" connectable="0">
                    <mxGeometry x="-0.2489" y="-3" relative="1" as="geometry">
                        <mxPoint as="offset"/>
                    </mxGeometry>
                </mxCell>
                <mxCell id="72" value="" style="endArrow=none;html=1;entryX=0.5;entryY=1;entryDx=0;entryDy=0;exitX=0.5;exitY=0;exitDx=0;exitDy=0;" parent="1" source="64" target="16" edge="1">
                    <mxGeometry width="50" height="50" relative="1" as="geometry">
                        <mxPoint x="870" y="700" as="sourcePoint"/>
                        <mxPoint x="920" y="650" as="targetPoint"/>
                        <Array as="points">
                            <mxPoint x="1150" y="580"/>
                            <mxPoint x="1060" y="580"/>
                        </Array>
                    </mxGeometry>
                </mxCell>
                <mxCell id="79" value="1" style="edgeLabel;html=1;align=center;verticalAlign=middle;resizable=0;points=[];rounded=1;" parent="72" vertex="1" connectable="0">
                    <mxGeometry x="0.0554" y="-2" relative="1" as="geometry">
                        <mxPoint as="offset"/>
                    </mxGeometry>
                </mxCell>
                <mxCell id="74" value="benutzt" style="rhombus;whiteSpace=wrap;html=1;rounded=1;" parent="1" vertex="1">
                    <mxGeometry x="860" y="415" width="80" height="80" as="geometry"/>
                </mxCell>
                <mxCell id="75" value="" style="endArrow=none;html=1;entryX=1;entryY=0.5;entryDx=0;entryDy=0;exitX=0;exitY=0.5;exitDx=0;exitDy=0;" parent="1" source="16" target="74" edge="1">
                    <mxGeometry width="50" height="50" relative="1" as="geometry">
                        <mxPoint x="950" y="550" as="sourcePoint"/>
                        <mxPoint x="1000" y="500" as="targetPoint"/>
                    </mxGeometry>
                </mxCell>
                <mxCell id="78" value="1" style="edgeLabel;html=1;align=center;verticalAlign=middle;resizable=0;points=[];rounded=1;" parent="75" vertex="1" connectable="0">
                    <mxGeometry x="-0.0587" y="-2" relative="1" as="geometry">
                        <mxPoint as="offset"/>
                    </mxGeometry>
                </mxCell>
                <mxCell id="76" value="" style="endArrow=none;html=1;exitX=0;exitY=0.5;exitDx=0;exitDy=0;entryX=1;entryY=0;entryDx=0;entryDy=0;" parent="1" source="74" target="8" edge="1">
                    <mxGeometry width="50" height="50" relative="1" as="geometry">
                        <mxPoint x="860" y="435" as="sourcePoint"/>
                        <mxPoint x="640" y="400" as="targetPoint"/>
                        <Array as="points">
                            <mxPoint x="860" y="360"/>
                            <mxPoint x="640" y="360"/>
                        </Array>
                    </mxGeometry>
                </mxCell>
                <mxCell id="77" value="m" style="edgeLabel;html=1;align=center;verticalAlign=middle;resizable=0;points=[];rounded=1;" parent="76" vertex="1" connectable="0">
                    <mxGeometry x="0.3176" y="3" relative="1" as="geometry">
                        <mxPoint as="offset"/>
                    </mxGeometry>
                </mxCell>
                <mxCell id="81" value="kocht" style="rhombus;whiteSpace=wrap;html=1;rounded=1;" parent="1" vertex="1">
                    <mxGeometry x="830" y="40" width="80" height="80" as="geometry"/>
                </mxCell>
                <mxCell id="82" value="" style="endArrow=none;html=1;entryX=0.5;entryY=1;entryDx=0;entryDy=0;exitX=0.5;exitY=0;exitDx=0;exitDy=0;" parent="1" source="81" target="12" edge="1">
                    <mxGeometry width="50" height="50" relative="1" as="geometry">
                        <mxPoint x="920" y="300" as="sourcePoint"/>
                        <mxPoint x="970" y="250" as="targetPoint"/>
                    </mxGeometry>
                </mxCell>
                <mxCell id="86" value="m" style="edgeLabel;html=1;align=center;verticalAlign=middle;resizable=0;points=[];rounded=1;" parent="82" vertex="1" connectable="0">
                    <mxGeometry x="-0.0073" relative="1" as="geometry">
                        <mxPoint as="offset"/>
                    </mxGeometry>
                </mxCell>
                <mxCell id="83" value="" style="endArrow=none;html=1;entryX=0.5;entryY=1;entryDx=0;entryDy=0;exitX=0.5;exitY=0;exitDx=0;exitDy=0;" parent="1" source="46" target="81" edge="1">
                    <mxGeometry width="50" height="50" relative="1" as="geometry">
                        <mxPoint x="1020" y="300" as="sourcePoint"/>
                        <mxPoint x="1070" y="250" as="targetPoint"/>
                        <Array as="points">
                            <mxPoint x="970" y="120"/>
                        </Array>
                    </mxGeometry>
                </mxCell>
                <mxCell id="87" value="1" style="edgeLabel;html=1;align=center;verticalAlign=middle;resizable=0;points=[];rounded=1;" parent="83" vertex="1" connectable="0">
                    <mxGeometry x="0.2556" y="-3" relative="1" as="geometry">
                        <mxPoint as="offset"/>
                    </mxGeometry>
                </mxCell>
                <mxCell id="88" value="Gebühr" style="ellipse;whiteSpace=wrap;html=1;rounded=1;" parent="1" vertex="1">
                    <mxGeometry x="260" y="782.5" width="120" height="80" as="geometry"/>
                </mxCell>
                <mxCell id="89" value="GratisLieferung" style="ellipse;whiteSpace=wrap;html=1;rounded=1;" parent="1" vertex="1">
                    <mxGeometry x="260" y="867.5" width="120" height="80" as="geometry"/>
                </mxCell>
                <mxCell id="90" value="" style="endArrow=none;html=1;exitX=1;exitY=0.5;exitDx=0;exitDy=0;entryX=0;entryY=0.5;entryDx=0;entryDy=0;" parent="1" source="88" target="3" edge="1">
                    <mxGeometry width="50" height="50" relative="1" as="geometry">
                        <mxPoint x="500" y="620" as="sourcePoint"/>
                        <mxPoint x="550" y="570" as="targetPoint"/>
                        <Array as="points">
                            <mxPoint x="440" y="823"/>
                            <mxPoint x="440" y="745"/>
                        </Array>
                    </mxGeometry>
                </mxCell>
                <mxCell id="91" value="" style="endArrow=none;html=1;exitX=1;exitY=0.5;exitDx=0;exitDy=0;entryX=0;entryY=0.5;entryDx=0;entryDy=0;" parent="1" source="89" target="3" edge="1">
                    <mxGeometry width="50" height="50" relative="1" as="geometry">
                        <mxPoint x="500" y="620" as="sourcePoint"/>
                        <mxPoint x="550" y="570" as="targetPoint"/>
                        <Array as="points">
                            <mxPoint x="440" y="908"/>
                            <mxPoint x="440" y="745"/>
                        </Array>
                    </mxGeometry>
                </mxCell>
                <mxCell id="92" value="RestaurantAnschrift" style="ellipse;whiteSpace=wrap;html=1;rounded=1;" parent="1" vertex="1">
                    <mxGeometry x="620" y="960" width="120" height="80" as="geometry"/>
                </mxCell>
                <mxCell id="93" value="TotalPrice" style="ellipse;whiteSpace=wrap;html=1;rounded=1;" parent="1" vertex="1">
                    <mxGeometry x="620" y="1050" width="120" height="80" as="geometry"/>
                </mxCell>
                <mxCell id="95" value="&lt;u&gt;OrderID&lt;/u&gt;" style="ellipse;whiteSpace=wrap;html=1;rounded=1;" parent="1" vertex="1">
                    <mxGeometry x="820" y="960" width="120" height="80" as="geometry"/>
                </mxCell>
                <mxCell id="96" value="Quantity" style="ellipse;whiteSpace=wrap;html=1;rounded=1;" parent="1" vertex="1">
                    <mxGeometry x="820" y="1050" width="120" height="80" as="geometry"/>
                </mxCell>
                <mxCell id="97" value="" style="endArrow=none;html=1;entryX=0.5;entryY=1;entryDx=0;entryDy=0;exitX=1;exitY=0.5;exitDx=0;exitDy=0;" parent="1" source="92" target="13" edge="1">
                    <mxGeometry width="50" height="50" relative="1" as="geometry">
                        <mxPoint x="820" y="930" as="sourcePoint"/>
                        <mxPoint x="870" y="880" as="targetPoint"/>
                        <Array as="points">
                            <mxPoint x="780" y="1000"/>
                        </Array>
                    </mxGeometry>
                </mxCell>
                <mxCell id="99" value="" style="endArrow=none;html=1;entryX=0.5;entryY=1;entryDx=0;entryDy=0;exitX=0;exitY=0.5;exitDx=0;exitDy=0;" parent="1" source="95" target="13" edge="1">
                    <mxGeometry width="50" height="50" relative="1" as="geometry">
                        <mxPoint x="820" y="930" as="sourcePoint"/>
                        <mxPoint x="870" y="880" as="targetPoint"/>
                        <Array as="points">
                            <mxPoint x="780" y="1000"/>
                        </Array>
                    </mxGeometry>
                </mxCell>
                <mxCell id="100" value="" style="endArrow=none;html=1;exitX=0.5;exitY=1;exitDx=0;exitDy=0;entryX=0;entryY=0.5;entryDx=0;entryDy=0;" parent="1" source="13" target="96" edge="1">
                    <mxGeometry width="50" height="50" relative="1" as="geometry">
                        <mxPoint x="780" y="947.5" as="sourcePoint"/>
                        <mxPoint x="830" y="1090" as="targetPoint"/>
                        <Array as="points">
                            <mxPoint x="780" y="1090"/>
                        </Array>
                    </mxGeometry>
                </mxCell>
                <mxCell id="101" value="" style="endArrow=none;html=1;entryX=1;entryY=0.5;entryDx=0;entryDy=0;exitX=0.5;exitY=1;exitDx=0;exitDy=0;" parent="1" source="13" target="93" edge="1">
                    <mxGeometry width="50" height="50" relative="1" as="geometry">
                        <mxPoint x="820" y="930" as="sourcePoint"/>
                        <mxPoint x="870" y="880" as="targetPoint"/>
                        <Array as="points">
                            <mxPoint x="780" y="1090"/>
                        </Array>
                    </mxGeometry>
                </mxCell>
                <mxCell id="102" value="&lt;u&gt;WarenkorbID&lt;/u&gt;" style="ellipse;whiteSpace=wrap;html=1;rounded=1;" parent="1" vertex="1">
                    <mxGeometry x="890" y="518.13" width="120" height="80" as="geometry"/>
                </mxCell>
                <mxCell id="104" value="BenutzerID" style="ellipse;whiteSpace=wrap;html=1;rounded=1;" parent="1" vertex="1">
                    <mxGeometry x="890" y="601.88" width="120" height="80" as="geometry"/>
                </mxCell>
                <mxCell id="105" value="" style="endArrow=none;html=1;entryX=1;entryY=0.5;entryDx=0;entryDy=0;exitX=0;exitY=0.5;exitDx=0;exitDy=0;" parent="1" source="102" target="9" edge="1">
                    <mxGeometry width="50" height="50" relative="1" as="geometry">
                        <mxPoint x="820" y="800" as="sourcePoint"/>
                        <mxPoint x="870" y="750" as="targetPoint"/>
                        <Array as="points">
                            <mxPoint x="860" y="560"/>
                            <mxPoint x="860" y="600"/>
                        </Array>
                    </mxGeometry>
                </mxCell>
                <mxCell id="107" value="" style="endArrow=none;html=1;entryX=1;entryY=0.5;entryDx=0;entryDy=0;exitX=0;exitY=0.5;exitDx=0;exitDy=0;" parent="1" source="104" target="9" edge="1">
                    <mxGeometry width="50" height="50" relative="1" as="geometry">
                        <mxPoint x="820" y="800" as="sourcePoint"/>
                        <mxPoint x="870" y="750" as="targetPoint"/>
                        <Array as="points">
                            <mxPoint x="860" y="642"/>
                            <mxPoint x="860" y="600"/>
                        </Array>
                    </mxGeometry>
                </mxCell>
                <mxCell id="108" value="DienstID" style="ellipse;whiteSpace=wrap;html=1;rounded=1;" parent="1" vertex="1">
                    <mxGeometry x="1520" y="173" width="120" height="80" as="geometry"/>
                </mxCell>
                <mxCell id="109" value="Name" style="ellipse;whiteSpace=wrap;html=1;rounded=1;" parent="1" vertex="1">
                    <mxGeometry x="1520" y="260" width="120" height="80" as="geometry"/>
                </mxCell>
                <mxCell id="110" value="Fahrzeug" style="ellipse;whiteSpace=wrap;html=1;rounded=1;" parent="1" vertex="1">
                    <mxGeometry x="1520" y="345" width="120" height="80" as="geometry"/>
                </mxCell>
                <mxCell id="111" value="Auto" style="ellipse;whiteSpace=wrap;html=1;rounded=1;" parent="1" vertex="1">
                    <mxGeometry x="1730" y="305" width="120" height="80" as="geometry"/>
                </mxCell>
                <mxCell id="112" value="Fahrrad" style="ellipse;whiteSpace=wrap;html=1;rounded=1;" parent="1" vertex="1">
                    <mxGeometry x="1730" y="390" width="120" height="80" as="geometry"/>
                </mxCell>
                <mxCell id="113" value="" style="endArrow=none;html=1;entryX=0;entryY=0.5;entryDx=0;entryDy=0;exitX=1;exitY=0.5;exitDx=0;exitDy=0;" parent="1" source="5" target="110" edge="1">
                    <mxGeometry width="50" height="50" relative="1" as="geometry">
                        <mxPoint x="1710" y="270" as="sourcePoint"/>
                        <mxPoint x="1760" y="220" as="targetPoint"/>
                        <Array as="points">
                            <mxPoint x="1480" y="320"/>
                            <mxPoint x="1480" y="385"/>
                        </Array>
                    </mxGeometry>
                </mxCell>
                <mxCell id="114" value="" style="endArrow=none;html=1;entryX=1;entryY=0.5;entryDx=0;entryDy=0;exitX=0;exitY=0.5;exitDx=0;exitDy=0;" parent="1" source="109" target="5" edge="1">
                    <mxGeometry width="50" height="50" relative="1" as="geometry">
                        <mxPoint x="1710" y="270" as="sourcePoint"/>
                        <mxPoint x="1760" y="220" as="targetPoint"/>
                        <Array as="points">
                            <mxPoint x="1480" y="300"/>
                            <mxPoint x="1480" y="320"/>
                        </Array>
                    </mxGeometry>
                </mxCell>
                <mxCell id="115" value="" style="endArrow=none;html=1;entryX=1;entryY=0.5;entryDx=0;entryDy=0;exitX=0;exitY=0.5;exitDx=0;exitDy=0;" parent="1" source="108" target="5" edge="1">
                    <mxGeometry width="50" height="50" relative="1" as="geometry">
                        <mxPoint x="1710" y="270" as="sourcePoint"/>
                        <mxPoint x="1760" y="220" as="targetPoint"/>
                        <Array as="points">
                            <mxPoint x="1480" y="213"/>
                            <mxPoint x="1480" y="320"/>
                        </Array>
                    </mxGeometry>
                </mxCell>
                <mxCell id="116" value="" style="endArrow=none;html=1;exitX=1;exitY=0.5;exitDx=0;exitDy=0;entryX=0;entryY=0.5;entryDx=0;entryDy=0;" parent="1" source="110" target="111" edge="1">
                    <mxGeometry width="50" height="50" relative="1" as="geometry">
                        <mxPoint x="1710" y="270" as="sourcePoint"/>
                        <mxPoint x="1760" y="220" as="targetPoint"/>
                        <Array as="points">
                            <mxPoint x="1680" y="385"/>
                            <mxPoint x="1680" y="345"/>
                        </Array>
                    </mxGeometry>
                </mxCell>
                <mxCell id="117" value="" style="endArrow=none;html=1;exitX=1;exitY=0.5;exitDx=0;exitDy=0;entryX=0;entryY=0.5;entryDx=0;entryDy=0;" parent="1" source="110" target="112" edge="1">
                    <mxGeometry width="50" height="50" relative="1" as="geometry">
                        <mxPoint x="1710" y="270" as="sourcePoint"/>
                        <mxPoint x="1760" y="220" as="targetPoint"/>
                        <Array as="points">
                            <mxPoint x="1680" y="385"/>
                            <mxPoint x="1680" y="430"/>
                        </Array>
                    </mxGeometry>
                </mxCell>
                <mxCell id="118" value="&lt;u&gt;GerichtID&lt;/u&gt;" style="ellipse;whiteSpace=wrap;html=1;rounded=1;" parent="1" vertex="1">
                    <mxGeometry x="680" y="-230" width="120" height="80" as="geometry"/>
                </mxCell>
                <mxCell id="119" value="Preis" style="ellipse;whiteSpace=wrap;html=1;rounded=1;" parent="1" vertex="1">
                    <mxGeometry x="810" y="-230" width="120" height="80" as="geometry"/>
                </mxCell>
                <mxCell id="120" value="GerichtName" style="ellipse;whiteSpace=wrap;html=1;rounded=1;" parent="1" vertex="1">
                    <mxGeometry x="940" y="-230" width="120" height="80" as="geometry"/>
                </mxCell>
                <mxCell id="123" value="" style="endArrow=none;html=1;entryX=0.5;entryY=1;entryDx=0;entryDy=0;exitX=0.5;exitY=0;exitDx=0;exitDy=0;" parent="1" source="12" target="118" edge="1">
                    <mxGeometry width="50" height="50" relative="1" as="geometry">
                        <mxPoint x="920" y="60" as="sourcePoint"/>
                        <mxPoint x="970" y="10" as="targetPoint"/>
                        <Array as="points">
                            <mxPoint x="870" y="-110"/>
                            <mxPoint x="740" y="-110"/>
                        </Array>
                    </mxGeometry>
                </mxCell>
                <mxCell id="124" value="" style="endArrow=none;html=1;entryX=0.5;entryY=1;entryDx=0;entryDy=0;exitX=0.5;exitY=0;exitDx=0;exitDy=0;" parent="1" source="12" target="119" edge="1">
                    <mxGeometry width="50" height="50" relative="1" as="geometry">
                        <mxPoint x="920" y="60" as="sourcePoint"/>
                        <mxPoint x="970" y="10" as="targetPoint"/>
                    </mxGeometry>
                </mxCell>
                <mxCell id="125" value="" style="endArrow=none;html=1;entryX=0.5;entryY=1;entryDx=0;entryDy=0;exitX=0.5;exitY=0;exitDx=0;exitDy=0;" parent="1" source="12" target="120" edge="1">
                    <mxGeometry width="50" height="50" relative="1" as="geometry">
                        <mxPoint x="920" y="60" as="sourcePoint"/>
                        <mxPoint x="970" y="10" as="targetPoint"/>
                        <Array as="points">
                            <mxPoint x="870" y="-110"/>
                            <mxPoint x="1000" y="-110"/>
                        </Array>
                    </mxGeometry>
                </mxCell>
                <mxCell id="128" value="Öffnungszeiten" style="ellipse;whiteSpace=wrap;html=1;rounded=1;" parent="1" vertex="1">
                    <mxGeometry x="1170" y="-20" width="120" height="80" as="geometry"/>
                </mxCell>
                <mxCell id="129" value="Name" style="ellipse;whiteSpace=wrap;html=1;rounded=1;" parent="1" vertex="1">
                    <mxGeometry x="1170" y="-110" width="120" height="80" as="geometry"/>
                </mxCell>
                <mxCell id="131" value="Anschrift" style="ellipse;whiteSpace=wrap;html=1;rounded=1;" parent="1" vertex="1">
                    <mxGeometry x="1170" y="70" width="120" height="80" as="geometry"/>
                </mxCell>
                <mxCell id="132" value="" style="endArrow=none;html=1;entryX=0;entryY=0.5;entryDx=0;entryDy=0;exitX=1;exitY=0.5;exitDx=0;exitDy=0;" parent="1" source="46" target="131" edge="1">
                    <mxGeometry width="50" height="50" relative="1" as="geometry">
                        <mxPoint x="970" y="190" as="sourcePoint"/>
                        <mxPoint x="1020" y="140" as="targetPoint"/>
                        <Array as="points">
                            <mxPoint x="1060" y="203"/>
                            <mxPoint x="1060" y="110"/>
                        </Array>
                    </mxGeometry>
                </mxCell>
                <mxCell id="135" value="" style="endArrow=none;html=1;entryX=0;entryY=0.5;entryDx=0;entryDy=0;exitX=1;exitY=0.5;exitDx=0;exitDy=0;" parent="1" source="46" target="128" edge="1">
                    <mxGeometry width="50" height="50" relative="1" as="geometry">
                        <mxPoint x="970" y="50" as="sourcePoint"/>
                        <mxPoint x="1020" as="targetPoint"/>
                        <Array as="points">
                            <mxPoint x="1060" y="203"/>
                            <mxPoint x="1060" y="20"/>
                        </Array>
                    </mxGeometry>
                </mxCell>
                <mxCell id="136" value="" style="endArrow=none;html=1;entryX=0;entryY=0.5;entryDx=0;entryDy=0;exitX=1;exitY=0.5;exitDx=0;exitDy=0;" parent="1" source="46" target="129" edge="1">
                    <mxGeometry width="50" height="50" relative="1" as="geometry">
                        <mxPoint x="970" y="50" as="sourcePoint"/>
                        <mxPoint x="1020" as="targetPoint"/>
                        <Array as="points">
                            <mxPoint x="1060" y="203"/>
                            <mxPoint x="1060" y="-70"/>
                        </Array>
                    </mxGeometry>
                </mxCell>
                <mxCell id="139" value="Von" style="ellipse;whiteSpace=wrap;html=1;rounded=1;" parent="1" vertex="1">
                    <mxGeometry x="1330" y="-110" width="120" height="80" as="geometry"/>
                </mxCell>
                <mxCell id="140" value="Bis" style="ellipse;whiteSpace=wrap;html=1;rounded=1;" parent="1" vertex="1">
                    <mxGeometry x="1330" y="-20" width="120" height="80" as="geometry"/>
                </mxCell>
                <mxCell id="141" value="" style="endArrow=none;html=1;entryX=0;entryY=0.5;entryDx=0;entryDy=0;exitX=1;exitY=0.5;exitDx=0;exitDy=0;" parent="1" source="128" target="139" edge="1">
                    <mxGeometry width="50" height="50" relative="1" as="geometry">
                        <mxPoint x="1400" y="190" as="sourcePoint"/>
                        <mxPoint x="1450" y="140" as="targetPoint"/>
                        <Array as="points">
                            <mxPoint x="1310" y="20"/>
                            <mxPoint x="1310" y="-70"/>
                        </Array>
                    </mxGeometry>
                </mxCell>
                <mxCell id="142" value="" style="endArrow=none;html=1;entryX=0;entryY=0.5;entryDx=0;entryDy=0;exitX=1;exitY=0.5;exitDx=0;exitDy=0;" parent="1" source="128" target="140" edge="1">
                    <mxGeometry width="50" height="50" relative="1" as="geometry">
                        <mxPoint x="1400" y="190" as="sourcePoint"/>
                        <mxPoint x="1450" y="140" as="targetPoint"/>
                    </mxGeometry>
                </mxCell>
                <mxCell id="143" value="&lt;u&gt;RestaurantID&lt;/u&gt;" style="ellipse;whiteSpace=wrap;html=1;rounded=1;" parent="1" vertex="1">
                    <mxGeometry x="1170" y="-200" width="120" height="80" as="geometry"/>
                </mxCell>
                <mxCell id="144" value="" style="endArrow=none;html=1;entryX=0;entryY=0.5;entryDx=0;entryDy=0;exitX=1;exitY=0.5;exitDx=0;exitDy=0;" parent="1" source="46" target="143" edge="1">
                    <mxGeometry width="50" height="50" relative="1" as="geometry">
                        <mxPoint x="1029.9999999999998" y="201.5" as="sourcePoint"/>
                        <mxPoint x="1169.9999999999998" y="-161.5" as="targetPoint"/>
                        <Array as="points">
                            <mxPoint x="1060" y="203"/>
                            <mxPoint x="1060" y="-160"/>
                        </Array>
                    </mxGeometry>
                </mxCell>
                <mxCell id="150" value="" style="endArrow=none;html=1;exitX=1;exitY=0.5;exitDx=0;exitDy=0;entryX=0;entryY=0.5;entryDx=0;entryDy=0;" parent="1" source="2" target="8" edge="1">
                    <mxGeometry width="50" height="50" relative="1" as="geometry">
                        <mxPoint x="510" y="460" as="sourcePoint"/>
                        <mxPoint x="560" y="410" as="targetPoint"/>
                        <Array as="points">
                            <mxPoint x="450" y="430"/>
                            <mxPoint x="450" y="450"/>
                        </Array>
                    </mxGeometry>
                </mxCell>
                <mxCell id="151" value="bewertung" style="rhombus;whiteSpace=wrap;html=1;rounded=1;" vertex="1" parent="1">
                    <mxGeometry x="670" y="135" width="80" height="80" as="geometry"/>
                </mxCell>
                <mxCell id="154" value="" style="endArrow=none;html=1;entryX=0;entryY=0.5;entryDx=0;entryDy=0;exitX=1;exitY=0.5;exitDx=0;exitDy=0;" edge="1" parent="1" source="151" target="46">
                    <mxGeometry width="50" height="50" relative="1" as="geometry">
                        <mxPoint x="860" y="340" as="sourcePoint"/>
                        <mxPoint x="910" y="290" as="targetPoint"/>
                        <Array as="points">
                            <mxPoint x="780" y="175"/>
                            <mxPoint x="780" y="203"/>
                        </Array>
                    </mxGeometry>
                </mxCell>
                <mxCell id="157" value="n" style="edgeLabel;html=1;align=center;verticalAlign=middle;resizable=0;points=[];" vertex="1" connectable="0" parent="154">
                    <mxGeometry x="0.4304" y="-3" relative="1" as="geometry">
                        <mxPoint as="offset"/>
                    </mxGeometry>
                </mxCell>
                <mxCell id="155" value="" style="endArrow=none;html=1;entryX=0;entryY=0.5;entryDx=0;entryDy=0;exitX=1;exitY=0.5;exitDx=0;exitDy=0;" edge="1" parent="1" source="8" target="151">
                    <mxGeometry width="50" height="50" relative="1" as="geometry">
                        <mxPoint x="790" y="390" as="sourcePoint"/>
                        <mxPoint x="840" y="340" as="targetPoint"/>
                        <Array as="points">
                            <mxPoint x="640" y="370"/>
                            <mxPoint x="640" y="175"/>
                        </Array>
                    </mxGeometry>
                </mxCell>
                <mxCell id="156" value="m" style="edgeLabel;html=1;align=center;verticalAlign=middle;resizable=0;points=[];" vertex="1" connectable="0" parent="155">
                    <mxGeometry x="0.3674" relative="1" as="geometry">
                        <mxPoint as="offset"/>
                    </mxGeometry>
                </mxCell>
                <mxCell id="159" style="edgeStyle=none;html=1;entryX=0.5;entryY=0;entryDx=0;entryDy=0;" edge="1" parent="1" source="158" target="151">
                    <mxGeometry relative="1" as="geometry"/>
                </mxCell>
                <mxCell id="158" value="Bewertung" style="ellipse;whiteSpace=wrap;html=1;" vertex="1" parent="1">
                    <mxGeometry x="650" y="-20" width="120" height="80" as="geometry"/>
                </mxCell>
            </root>
        </mxGraphModel>
    </diagram>
</mxfile>